<?xml version="1.0" encoding="utf-8"?>
<!-- Generator: Adobe Illustrator 26.3.1, SVG Export Plug-In . SVG Version: 6.00 Build 0)  -->
<svg version="1.1" id="레이어_1" xmlns="http://www.w3.org/2000/svg" xmlns:xlink="http://www.w3.org/1999/xlink" x="0px"
	 y="0px" viewBox="0 0 48 48" style="enable-background:new 0 0 48 48;" xml:space="preserve">
<g>
	<path d="M11.8,34.5L11.8,34.5c0-0.8,0.7-1.5,1.5-1.5h28.1c0.8,0,1.5,0.7,1.5,1.5l0,0c0,0.8-0.7,1.5-1.5,1.5H13.3
		C12.5,36,11.8,35.3,11.8,34.5z M11.8,24L11.8,24c0-0.8,0.7-1.5,1.5-1.5h28.1c0.8,0,1.5,0.7,1.5,1.5v0c0,0.8-0.7,1.5-1.5,1.5H13.3
		C12.5,25.5,11.8,24.8,11.8,24z M11.8,13.5L11.8,13.5c0-0.8,0.7-1.5,1.5-1.5h28.1c0.8,0,1.5,0.7,1.5,1.5v0c0,0.8-0.7,1.5-1.5,1.5
		H13.3C12.5,15,11.8,14.3,11.8,13.5z"/>
	<circle cx="7.1" cy="24" r="2"/>
	<circle cx="7.1" cy="34.5" r="2"/>
	<circle cx="7.1" cy="13.5" r="2"/>
</g>
</svg>
